HIERARCHY
ROOT Hips
{
  OFFSET 63.9267 104.415 339.856
  CHANNELS 6 Xposition Yposition Zposition Zrotation Xrotation Yrotation
  JOINT RightUpLeg
  {
    OFFSET -8.9458 -8.66707 0.101652
    CHANNELS 3 Zrotation Xrotation Yrotation
    JOINT RightLeg
    {
      OFFSET 0 -44.4227 1.3727
      CHANNELS 3 Zrotation Xrotation Yrotation
      JOINT RightFoot
      {
        OFFSET 0.253549 -42.0924 -1.46059
        CHANNELS 3 Zrotation Xrotation Yrotation
        JOINT RightToes
        {
          OFFSET 0.04 -4.41509 8.4991
          CHANNELS 3 Zrotation Xrotation Yrotation
          End Site
          {
            OFFSET -0.08 -0.137448 9.77979
          }
        }
      }
    }
  }
  JOINT Spine
  {
    OFFSET 0 11.8905 0
    CHANNELS 3 Zrotation Xrotation Yrotation
    JOINT Spine1
    {
      OFFSET 0 25.6574 0.127663
      CHANNELS 3 Zrotation Xrotation Yrotation
      JOINT HEad
      {
        OFFSET 0 8.73416 0.011341
        CHANNELS 3 Zrotation Xrotation Yrotation
        End Site
        {
          OFFSET -0.29 12.7742 2.51395
        }
      }
      JOINT LeftShoulder1
      {
        OFFSET 8.99 -0.362252 -0.22
        CHANNELS 3 Zrotation Xrotation Yrotation
        JOINT LeftArm
        {
          OFFSET 10.2827 -0.00338 0.322123
          CHANNELS 3 Zrotation Xrotation Yrotation
          JOINT LeftForeArm
          {
            OFFSET 32.7669 0.099144 -1.42434
            CHANNELS 3 Zrotation Xrotation Yrotation
            JOINT LeftHand
            {
              OFFSET 27.5643 0.085362 1.02216
              CHANNELS 3 Zrotation Xrotation Yrotation
              End Site
              {
                OFFSET 16.7443 -0.6 1.50291
              }
            }
          }
        }
      }
      JOINT RightShoulder
      {
        OFFSET -8.99 -0.362252 -0.22
        CHANNELS 3 Zrotation Xrotation Yrotation
        JOINT RightArm
        {
          OFFSET -10.2827 -0.00338 0.322123
          CHANNELS 3 Zrotation Xrotation Yrotation
          JOINT RightForeArm
          {
            OFFSET -32.8971 0.099144 -1.42434
            CHANNELS 3 Zrotation Xrotation Yrotation
            JOINT RightHand
            {
              OFFSET -27.4921 0.085362 1.02216
              CHANNELS 3 Zrotation Xrotation Yrotation
              End Site
              {
                OFFSET -16.6312 -0.6 1.50291
              }
            }
          }
        }
      }
    }
  }
  JOINT LeftUpLeg
  {
    OFFSET 8.9458 -8.66707 0.101652
    CHANNELS 3 Zrotation Xrotation Yrotation
    JOINT LeftLeg
    {
      OFFSET 0 -44.4227 1.3727
      CHANNELS 3 Zrotation Xrotation Yrotation
      JOINT LeftFoot
      {
        OFFSET -0.253549 -42.0924 -1.46059
        CHANNELS 3 Zrotation Xrotation Yrotation
        JOINT LeftToes
        {
          OFFSET -0.04 -4.41509 8.4991
          CHANNELS 3 Zrotation Xrotation Yrotation
          End Site
          {
            OFFSET 0.08 -0.047448 9.77979
          }
        }
      }
    }
  }
}
MOTION
Frames:	20
Frame Time:	0.0166667
0	104.063	0	2.12799	5.28588	163.483	1.2749	3.92666	0.427416	1.8841	11.3697	-19.7289	3.85307	-7.68034	0.298957	0.0462048	0.000533964	0.662642	-0.102806	-2.58317	-1.37431	-0.268073	-5.16033	-2.7577	1.40993	14.0726	14.959	7.95E-16	-1.59E-15	0.00E+00	1.42968	-10.705	-9.44983	1.17394	13.7304	-4.06068	0.323392	11.8819	7.98972	7.95E-16	-1.59E-15	0.00E+00	-3.65726	-10.0309	-3.6198	0.550627	13.5587	-2.47747	-0.0390788	10.3199	-4.59026	-2.82054	5.6275	10.0633	1.62294	10.4095	1.00921	-6.19069	-19.4135	-1.67499	1.36E-14	3.02E-14	6.36E-15
0.0009	104.067	0	2.11078	5.26726	163.474	1.27072	3.92963	0.42072	1.86743	11.318	-19.7224	3.8614	-7.68211	0.297631	0.0462048	0.000533964	0.662642	-0.104053	-2.58664	-1.37387	-0.270637	-5.16725	-2.7569	1.42946	14.0843	14.9759	1.59E-15	0.00E+00	6.36E-15	1.44907	-10.735	-9.43979	1.15974	13.6918	-4.04563	0.326884	11.8621	7.98724	1.59E-15	0.00E+00	6.36E-15	-3.68382	-10.0439	-3.62317	0.563727	13.5939	-2.49605	-0.00500626	10.3573	-4.60764	-2.82623	5.61771	10.063	1.61361	10.3848	1.01753	-6.16597	-19.4235	-1.6819	1.35E-14	3.34E-14	5.57E-15
0.0036	104.067	0.006	2.09624	5.24313	163.462	1.26978	3.91651	0.439099	1.85679	11.2802	-19.7331	3.86526	-7.68793	0.292182	0.0462048	0.000533964	0.662642	-0.104891	-2.59064	-1.37363	-0.272283	-5.17524	-2.75639	1.45693	14.0948	14.9729	-7.95E-16	-1.59E-15	0.00E+00	1.45806	-10.7971	-9.43285	1.16093	13.6613	-4.03028	0.334583	11.8645	7.98976	-7.95E-16	-1.59E-15	0.00E+00	-3.70603	-10.0661	-3.62935	0.568632	13.6289	-2.51374	-0.00220944	10.3631	-4.62736	-2.82483	5.59739	10.0743	1.60469	10.3691	1.01584	-6.13873	-19.4368	-1.68342	1.45E-14	3.50E-14	6.36E-15
0.0059	104.065	0.015	2.08556	5.22214	163.45	1.27087	3.89808	0.458299	1.84982	11.2587	-19.7384	3.86836	-7.69794	0.286904	0.0462048	0.000533964	0.662642	-0.105562	-2.59176	-1.37357	-0.273638	-5.18132	-2.75594	1.48527	14.1092	14.9626	7.95E-16	-1.59E-15	6.36E-15	1.4532	-10.8467	-9.42856	1.1788	13.6471	-4.01773	0.338095	11.8757	7.99893	7.95E-16	-1.59E-15	6.36E-15	-3.74412	-10.0792	-3.64156	0.569054	13.6302	-2.53471	-0.0228245	10.3739	-4.62078	-2.81359	5.57568	10.0761	1.5932	10.3676	1.01315	-6.11678	-19.4562	-1.68299	1.39E-14	3.34E-14	4.77E-15
0.008	104.063	0.026	2.07757	5.20812	163.445	1.27431	3.88176	0.461146	1.84408	11.2481	-19.7361	3.86971	-7.71161	0.286256	0.0462048	0.000533964	0.662642	-0.106118	-2.59166	-1.37365	-0.274662	-5.18423	-2.75554	1.50232	14.1088	14.9571	-7.95E-16	-3.18E-15	0.00E+00	1.44977	-10.8661	-9.41836	1.19413	13.6731	-4.02551	0.328842	11.8748	8.01438	-7.95E-16	-3.18E-15	0.00E+00	-3.77488	-10.0887	-3.65781	0.566022	13.6215	-2.53904	-0.0351851	10.3862	-4.63514	-2.7951	5.55942	10.0552	1.57498	10.371	1.03481	-6.09987	-19.4772	-1.68117	1.33E-14	3.18E-14	6.36E-15
0.01	104.06	0.039	2.07256	5.20434	163.444	1.27893	3.87182	0.45214	1.83867	11.2457	-19.7263	3.86478	-7.72441	0.285793	0.0462048	0.000533964	0.662642	-0.106583	-2.5909	-1.37386	-0.275204	-5.18044	-2.75516	1.51117	14.084	14.9541	-7.95E-16	-1.59E-15	0.00E+00	1.47022	-10.8468	-9.40206	1.19836	13.7224	-4.05281	0.299178	11.8775	8.01337	-7.95E-16	-1.59E-15	0.00E+00	-3.79579	-10.0927	-3.67035	0.569203	13.631	-2.5425	-0.0509512	10.3846	-4.64882	-2.78071	5.54961	10.0248	1.56113	10.3832	1.06968	-6.08618	-19.5052	-1.67864	1.51E-14	3.50E-14	5.57E-15
0.0147	104.057	0.057	2.07177	5.20607	163.443	1.28395	3.86083	0.45784	1.84129	11.2531	-19.7412	3.85618	-7.73474	0.285163	0.0462048	0.000533964	0.662642	-0.106981	-2.59003	-1.37415	-0.275483	-5.17406	-2.75481	1.51181	14.0516	14.9507	7.95E-16	1.59E-15	3.18E-15	1.50482	-10.8094	-9.38197	1.18424	13.7531	-4.08341	0.313091	11.8802	7.98832	7.95E-16	1.59E-15	3.18E-15	-3.83977	-10.0682	-3.68045	0.586132	13.6376	-2.55172	-0.0608141	10.3845	-4.63912	-2.76958	5.5444	9.98796	1.55177	10.4008	1.10999	-6.07026	-19.5357	-1.67598	1.34E-14	3.50E-14	5.57E-15
0.0208	104.055	0.079	2.07326	5.21	163.438	1.29089	3.84432	0.480953	1.84519	11.2646	-19.7673	3.84723	-7.74075	0.284411	0.0462048	0.000533964	0.662642	-0.107319	-2.58893	-1.37449	-0.275727	-5.16933	-2.7545	1.5047	14.0239	14.9477	7.95E-16	4.77E-15	3.18E-15	1.53489	-10.7825	-9.37771	1.17564	13.7401	-4.08836	0.342905	11.878	7.96035	7.95E-16	4.77E-15	3.18E-15	-3.86769	-10.0506	-3.68333	0.586733	13.667	-2.55749	-0.0465551	10.386	-4.64505	-2.75623	5.53852	9.97129	1.54659	10.4185	1.12921	-6.05384	-19.564	-1.67377	1.37E-14	3.18E-14	5.57E-15
0.0276	104.053	0.103	2.07494	5.21343	163.433	1.30301	3.82827	0.500779	1.84402	11.2791	-19.7837	3.8414	-7.74507	0.283586	0.0462048	0.000533964	0.662642	-0.107605	-2.5874	-1.37486	-0.275907	-5.16526	-2.75421	1.49057	14.0015	14.9456	-7.95E-31	4.77E-15	9.54E-15	1.54248	-10.8015	-9.37961	1.18892	13.7093	-4.07289	0.320459	11.868	7.97081	-7.95E-31	4.77E-15	9.54E-15	-3.90066	-10.0385	-3.67753	0.58264	13.6879	-2.57132	-0.00767412	10.3911	-4.6635	-2.74335	5.532	9.98018	1.54938	10.4361	1.12532	-6.04066	-19.5848	-1.67146	1.35E-14	3.18E-14	7.16E-15
0.036	104.05	0.125	2.07571	5.21513	163.427	1.3129	3.81857	0.491011	1.84068	11.2873	-19.7724	3.8345	-7.74914	0.282734	0.0462048	0.000533964	0.662642	-0.107859	-2.58586	-1.37521	-0.276117	-5.16338	-2.75395	1.47793	13.989	14.9455	1.59E-15	1.59E-15	0.00E+00	1.53188	-10.8504	-9.3847	1.22409	13.6897	-4.05552	0.281908	11.8731	8.00843	1.59E-15	1.59E-15	0.00E+00	-3.95514	-10.0437	-3.66575	0.590798	13.6843	-2.59236	0.0017831	10.406	-4.68143	-2.73809	5.52531	9.98082	1.55952	10.4516	1.1226	-6.03251	-19.6016	-1.66421	1.50E-14	3.50E-14	6.36E-15
0.0426	104.049	0.141	2.07477	5.21633	163.421	1.31191	3.81159	0.461765	1.84041	11.2908	-19.7522	3.8255	-7.75515	0.281903	0.0462048	0.000533964	0.662642	-0.108101	-2.58471	-1.37552	-0.276324	-5.16253	-2.7537	1.4593	13.9922	14.9496	-8.83E-32	1.59E-15	3.18E-15	1.4965	-10.8934	-9.39558	1.26734	13.6833	-4.05426	0.301611	11.8895	8.05508	-8.83E-32	1.59E-15	3.18E-15	-4.00473	-10.0521	-3.6493	0.577709	13.6424	-2.61216	-0.0266349	10.4174	-4.69789	-2.7337	5.5211	9.94531	1.56455	10.4644	1.14806	-6.02835	-19.6174	-1.65703	1.32E-14	2.86E-14	6.36E-15
0.0468	104.047	0.152	2.0706	5.21717	163.413	1.30534	3.8042	0.443163	1.84783	11.2906	-19.7456	3.81759	-7.76272	0.281139	0.0462048	0.000533964	0.662642	-0.108355	-2.58443	-1.37575	-0.276521	-5.16217	-2.75345	1.45831	13.9984	14.9531	0.00E+00	-1.59E-15	0.00E+00	1.48208	-10.9092	-9.40991	1.2819	13.7265	-4.08559	0.298357	11.864	8.06727	0.00E+00	-1.59E-15	0.00E+00	-4.0522	-10.0527	-3.6505	0.559178	13.6179	-2.60102	-0.0425977	10.4137	-4.71996	-2.72969	5.51897	9.89407	1.55637	10.4711	1.1921	-6.02765	-19.6315	-1.65485	1.64E-14	3.18E-14	6.36E-15
0.0522	104.046	0.157	2.06803	5.22652	163.4	1.30056	3.81367	0.428684	1.8565	11.2911	-19.7341	3.80857	-7.77414	0.28049	0.0462048	0.000533964	0.662642	-0.10859	-2.58335	-1.37587	-0.276704	-5.16179	-2.75318	1.46593	14.0043	14.9562	0.00E+00	-3.18E-15	0.00E+00	1.46684	-10.9056	-9.42225	1.3139	13.7934	-4.15819	0.234811	11.8699	8.05917	0.00E+00	-3.18E-15	0.00E+00	-4.11059	-10.0526	-3.6449	0.552986	13.6417	-2.58978	-0.0119003	10.4172	-4.72255	-2.72981	5.5353	9.8624	1.53925	10.4689	1.23493	-6.02731	-19.641	-1.65404	1.45E-14	3.02E-14	7.95E-15
0.0623	104.044	0.159	2.0669	5.23725	163.377	1.29951	3.82414	0.430463	1.85715	11.2955	-19.7192	3.80371	-7.78951	0.280004	0.0462048	0.000533964	0.662642	-0.108833	-2.58208	-1.37585	-0.276868	-5.16085	-2.75289	1.47746	14.0056	14.9574	0.00E+00	0.00E+00	3.18E-15	1.44146	-10.8976	-9.42585	1.38278	13.834	-4.25292	0.180101	11.8778	8.03786	0.00E+00	0.00E+00	3.18E-15	-4.16951	-10.0385	-3.61734	0.551354	13.6799	-2.58252	0.0165142	10.444	-4.73232	-2.73113	5.55422	9.86748	1.53261	10.4634	1.24027	-6.02484	-19.6514	-1.65217	1.52E-14	3.66E-14	4.77E-15
0.0713	104.043	0.161	2.06732	5.24663	163.354	1.29985	3.83073	0.441849	1.85987	11.3055	-19.7089	3.79669	-7.80877	0.279725	0.0462048	0.000533964	0.662642	-0.109094	-2.58057	-1.37565	-0.277009	-5.15883	-2.75256	1.49468	14.0048	14.955	-7.95E-16	1.59E-15	3.18E-15	1.40405	-10.9218	-9.42629	1.48934	13.847	-4.36481	0.177432	11.8773	8.04342	-7.95E-16	1.59E-15	3.18E-15	-4.20408	-10.0034	-3.57703	0.530475	13.6958	-2.57804	0.0100589	10.4471	-4.73751	-2.72431	5.57016	9.8809	1.52077	10.4613	1.23284	-6.01822	-19.6611	-1.64954	1.37E-14	3.02E-14	7.16E-15
0.0836	104.04	0.162	2.06677	5.2557	163.334	1.30041	3.83359	0.465129	1.86864	11.3222	-19.7138	3.79106	-7.83563	0.279703	0.0462048	0.000533964	0.662642	-0.109381	-2.57877	-1.37524	-0.277084	-5.15442	-2.75218	1.50244	14.0044	14.9384	1.59E-15	-1.59E-15	3.18E-15	1.36745	-10.9528	-9.42329	1.59148	13.817	-4.467	0.21929	11.8666	8.04299	1.59E-15	-1.59E-15	3.18E-15	-4.25124	-9.97197	-3.5613	0.5135	13.6663	-2.55967	-0.0361803	10.4469	-4.7232	-2.71712	5.58197	9.87903	1.50852	10.4679	1.23654	-6.01202	-19.6716	-1.64704	1.25E-14	3.34E-14	5.57E-15
0.0983	104.035	0.164	2.06495	5.27053	163.318	1.30055	3.83767	0.49419	1.88082	11.3439	-19.726	3.78563	-7.86702	0.279982	0.0462048	0.000533964	0.662642	-0.109705	-2.57663	-1.37459	-0.276555	-5.14584	-2.75199	1.49201	14.0031	14.9228	7.95E-16	1.59E-15	-3.18E-15	1.36648	-11.0021	-9.41377	1.61495	13.808	-4.55611	0.274591	11.8566	8.01354	7.95E-16	1.59E-15	-3.18E-15	-4.32368	-9.95319	-3.55082	0.503576	13.6218	-2.53541	-0.0877283	10.4469	-4.69634	-2.71645	5.59394	9.85619	1.49925	10.4824	1.25463	-6.00685	-19.682	-1.64555	1.66E-14	3.34E-14	4.77E-15
0.1126	104.029	0.168	2.06691	5.28668	163.309	1.29996	3.84138	0.518601	1.89643	11.3762	-19.7379	3.77947	-7.90212	0.280609	0.0462048	0.000533964	0.662642	-0.110076	-2.5741	-1.37367	-0.276151	-5.14208	-2.75194	1.46581	14.0158	14.9179	7.95E-16	3.18E-15	0.00E+00	1.39461	-10.9915	-9.41063	1.58261	13.8173	-4.6031	0.288199	11.8736	7.96806	7.95E-16	3.18E-15	0.00E+00	-4.38685	-9.90964	-3.50121	0.507516	13.6379	-2.54229	-0.120741	10.45	-4.69563	-2.71218	5.6049	9.81204	1.49389	10.5073	1.28857	-6.00359	-19.7003	-1.64603	1.23E-14	3.02E-14	5.57E-15
0.1288	104.022	0.176	2.07242	5.30739	163.301	1.29968	3.84441	0.522469	1.91033	11.4122	-19.739	3.77029	-7.93418	0.281624	0.0462048	0.000533964	0.662642	-0.110483	-2.57032	-1.37244	-0.276597	-5.13456	-2.75154	1.42759	14.0243	14.9134	0.00E+00	-3.18E-15	0.00E+00	1.38659	-10.9554	-9.43428	1.56588	13.8322	-4.60963	0.280945	11.8905	7.94331	0.00E+00	-3.18E-15	0.00E+00	-4.45547	-9.87139	-3.46353	0.511444	13.7062	-2.53975	-0.146489	10.4674	-4.70628	-2.7039	5.61911	9.7726	1.48381	10.537	1.32293	-6.0041	-19.7233	-1.65102	1.54E-14	3.18E-14	4.77E-15
0.1424	104.016	0.188	2.07944	5.32921	163.293	1.29888	3.84422	0.52839	1.92558	11.4549	-19.7399	3.75831	-7.96175	0.283074	0.0462048	0.000533964	0.662642	-0.110864	-2.56215	-1.37086	-0.279065	-5.11817	-2.75028	1.41624	14.0207	14.9071	1.77E-31	1.59E-15	-6.36E-15	1.38542	-10.9191	-9.4561	1.57066	13.8202	-4.60892	0.2564	11.8692	7.95131	1.77E-31	1.59E-15	-6.36E-15	-4.50359	-9.8429	-3.44545	0.512716	13.7495	-2.53632	-0.163324	10.4951	-4.69747	-2.68584	5.63123	9.75212	1.47508	10.578	1.34013	-6.008	-19.7595	-1.65766	1.60E-14	3.18E-14	4.77E-15
